<svg fill="#ffffff" width="100%" height="100%" viewBox="0 0 50 86" version="1.1" xmlns="http://www.w3.org/2000/svg" xmlns:xlink="http://www.w3.org/1999/xlink" xml:space="preserve" xmlns:serif="http://www.serif.com/" style="fill-rule:evenodd;clip-rule:evenodd;stroke-linejoin:round;stroke-miterlimit:2;"><path d="M6,0c-3.307,0 -6,2.693 -6,6l0,74c0,3.307 2.693,6 6,6l38,0c3.307,0 6,-2.693 6,-6l0,-74c0,-3.307 -2.693,-6 -6,-6l-38,0Zm0,2l38,0c2.233,0 4,1.767 4,4l0,4l-46,0l0,-4c0,-2.233 1.767,-4 4,-4Zm-4,10l46,0l0,58l-46,0l0,-58Zm0,60l46,0l0,8c0,2.233 -1.767,4 -4,4l-38,0c-2.233,0 -4,-1.767 -4,-4l0,-8Zm23,4c-1.105,0 -2,0.895 -2,2c0,1.105 0.895,2 2,2c1.105,0 2,-0.895 2,-2c0,-1.105 -0.895,-2 -2,-2Z" style="fill-rule:nonzero;"/></svg>