<svg fill="white" width="100%" height="100%" viewBox="0 0 14 24" version="1.1" xmlns="http://www.w3.org/2000/svg" xmlns:xlink="http://www.w3.org/1999/xlink" xml:space="preserve" xmlns:serif="http://www.serif.com/" style="fill-rule:evenodd;clip-rule:evenodd;stroke-linejoin:round;stroke-miterlimit:2;"><path d="M1.5,0l11,0c0.828,0 1.5,0.672 1.5,1.5l0,21c0,0.828 -0.672,1.5 -1.5,1.5l-11,0c-0.828,0 -1.5,-0.672 -1.5,-1.5l0,-21c0,-0.828 0.672,-1.5 1.5,-1.5Zm6.5,22c0,-0.552 -0.448,-1 -1,-1c-0.552,0 -1,0.448 -1,1c0,0.552 0.448,1 1,1c0.552,0 1,-0.448 1,-1Zm-7,-2l12,0l0,-18l-12,0l0,18Z" style="fill-rule:nonzero;"/></svg>