<svg fill="grey" width="100%" height="100%" viewBox="0 0 83 65" version="1.1" xmlns="http://www.w3.org/2000/svg" xmlns:xlink="http://www.w3.org/1999/xlink" xml:space="preserve" xmlns:serif="http://www.serif.com/" style="fill-rule:evenodd;clip-rule:evenodd;stroke-linejoin:round;stroke-miterlimit:2;"><path d="M46.634,43.562c0.732,1.163 1.037,2.621 0.694,4.158c-0.453,2.029 -2.103,3.657 -4.137,4.086c-3.54,0.747 -6.66,-1.934 -6.66,-5.343c0,-1.091 0.32,-2.106 0.872,-2.959c0.421,-0.651 -0.083,-1.509 -0.858,-1.509l-15.545,0c-0.552,0 -1,0.448 -1,1l0,20c0,0.552 0.448,1 1,1l42,0c0.552,0 1,-0.448 1,-1l0,-20c0,-0.552 -0.448,-1 -1,-1l-15.55,0c-0.806,0 -1.245,0.885 -0.816,1.567Z" style="fill-rule:nonzero;"/><g><path d="M42.078,2.535c-5.635,0 -10.203,4.568 -10.203,10.203c0,4.541 2.968,8.385 7.069,9.708l-0.013,0l0,4.028c-1.403,0.99 -2.322,2.62 -2.322,4.468c0,3.02 2.448,5.469 5.469,5.469c3.021,0 5.469,-2.448 5.469,-5.469c0,-1.848 -0.919,-3.478 -2.322,-4.468l0,-4.028l-0.013,0c4.101,-1.323 7.069,-5.167 7.069,-9.708c0,-5.635 -4.568,-10.203 -10.203,-10.203Zm0,17.031c-3.771,0 -6.828,-3.057 -6.828,-6.828c0,-3.771 3.057,-6.828 6.828,-6.828c3.771,0 6.828,3.057 6.828,6.828c0,3.771 -3.057,6.828 -6.828,6.828Z" style="fill-rule:nonzero;"/><path d="M24.528,2.582l-19.313,0c-0.276,0 -0.5,0.224 -0.5,0.5l0,19.313c0,0.276 0.224,0.5 0.5,0.5l6.509,0l0,2.474c0,0.659 -0.286,1.271 -0.749,1.74c-1.239,1.257 -1.875,3.108 -1.433,5.09c0.453,2.029 2.103,3.657 4.137,4.086c3.54,0.747 6.66,-1.934 6.66,-5.343c0,-1.488 -0.596,-2.836 -1.561,-3.821c-0.466,-0.475 -0.761,-1.09 -0.761,-1.755l0,-2.471l6.51,0c0.276,0 0.5,-0.224 0.5,-0.5l0,-19.313c0.001,-0.276 -0.223,-0.5 -0.499,-0.5Zm-2.828,16.484c0,0.276 -0.224,0.5 -0.5,0.5l-12.656,0c-0.276,0 -0.5,-0.224 -0.5,-0.5l0,-12.656c0,-0.276 0.224,-0.5 0.5,-0.5l12.656,0c0.276,0 0.5,0.224 0.5,0.5l0,12.656Z" style="fill-rule:nonzero;"/><path d="M82.734,22.282l-6.508,-11.272l-6.508,-11.272c-0.192,-0.333 -0.674,-0.333 -0.866,0l-6.508,11.272l-6.508,11.272c-0.192,0.333 0.048,0.75 0.433,0.75l9.713,0l0,3.441c-2.123,1.498 -3.138,4.462 -1.538,7.427c0.395,0.731 1.007,1.341 1.739,1.734c4.194,2.252 8.414,-0.727 8.414,-4.692c0,-1.848 -0.919,-3.478 -2.322,-4.468l0,-3.441l10.026,0c0.385,-0.001 0.625,-0.417 0.433,-0.751Zm-5.85,-2.213l-7.599,0l-7.599,0c-0.385,0 -0.625,-0.417 -0.433,-0.75l3.8,-6.581l3.8,-6.581c0.192,-0.333 0.674,-0.333 0.866,0l7.6,13.162c0.19,0.334 -0.05,0.75 -0.435,0.75Z" style="fill-rule:nonzero;"/></g></svg>