<svg fill="grey" width="100%" height="100%" viewBox="0 0 76 64" version="1.1" xmlns="http://www.w3.org/2000/svg" xmlns:xlink="http://www.w3.org/1999/xlink" xml:space="preserve" xmlns:serif="http://www.serif.com/" style="fill-rule:evenodd;clip-rule:evenodd;stroke-linejoin:round;stroke-miterlimit:2;"><path d="M1.359,34.137c0.608,0 1.12,-0.408 1.278,-0.965l0.006,0.001c1.864,-7.674 8.776,-13.374 17.024,-13.374c8.377,0 15.376,5.88 17.108,13.736l0,30.237c0.139,0 0.277,-0.004 0.415,-0.01l0,0.162c0.562,0.02 1.127,0.032 1.695,0.032c3.44,0 6.774,-0.366 9.951,-1.049l0,-33.04l0.019,0c0.227,-4.441 2.447,-8.354 5.78,-10.87l0.032,0.022c0.693,-0.488 1.537,-0.777 2.45,-0.777c1.989,0 3.656,1.364 4.126,3.207l0,0.881c0,1.23 0.997,2.227 2.227,2.227l10.009,0c1.23,0 2.227,-0.997 2.227,-2.227l0,-17.206c0,-1.23 -0.997,-2.227 -2.227,-2.227l-10.009,0c-1.23,0 -2.227,0.997 -2.227,2.227l0,0.876c-0.033,0.129 -0.071,0.256 -0.115,0.381c-0.027,0.075 -0.058,0.148 -0.089,0.221c-0.014,0.033 -0.027,0.067 -0.042,0.1c-0.03,0.067 -0.063,0.132 -0.097,0.197c-0.019,0.038 -0.038,0.075 -0.059,0.112c-0.034,0.061 -0.07,0.121 -0.107,0.181c-0.024,0.038 -0.047,0.076 -0.072,0.113c-0.038,0.057 -0.077,0.113 -0.117,0.167c-0.028,0.038 -0.056,0.074 -0.085,0.111c-0.041,0.052 -0.083,0.104 -0.126,0.155c-0.031,0.036 -0.065,0.071 -0.097,0.107c-0.044,0.048 -0.088,0.096 -0.135,0.142c-0.036,0.036 -0.075,0.069 -0.112,0.104c-0.046,0.042 -0.091,0.086 -0.139,0.126c-0.083,0.07 -0.168,0.136 -0.257,0.2c-0.041,0.029 -0.084,0.056 -0.127,0.084c-0.054,0.036 -0.108,0.073 -0.164,0.106c-0.044,0.027 -0.091,0.051 -0.136,0.076c-0.056,0.031 -0.113,0.062 -0.171,0.091c-0.046,0.023 -0.094,0.044 -0.141,0.065c-0.06,0.027 -0.12,0.053 -0.181,0.077c-0.048,0.019 -0.096,0.037 -0.145,0.054c-0.064,0.022 -0.128,0.043 -0.193,0.063c-0.048,0.014 -0.096,0.029 -0.145,0.041c-0.069,0.018 -0.139,0.033 -0.209,0.048c-0.047,0.01 -0.093,0.02 -0.14,0.028c-0.079,0.014 -0.159,0.023 -0.239,0.033c-0.04,0.005 -0.08,0.011 -0.12,0.014c-0.121,0.01 -0.244,0.017 -0.368,0.017c-1.117,0 -2.131,-0.433 -2.891,-1.136l-0.287,-0.458l-0.009,0.161c0,0 -2.362,-5.346 -5.877,-6.207c-2.94,-0.58 -6.009,-0.888 -9.168,-0.888c-21.46,0 -38.857,14.164 -38.857,31.636c0,0.17 0.003,0.34 0.006,0.509c0.012,0.722 0.6,1.306 1.327,1.306Z" style="fill-rule:nonzero;"/></svg>